# xmcd CD database file
#
# Track frame offsets:
#	182
#	14700
#	29725
#	44625
#	59100
#	73737
#	88225
#	105412
#	117325
#	131737
#	146200
#	160350
#	173600
#	187237
#	201925
#	221250
#	235300
#	268300
#
# Disc length: 4291 seconds
#
# Revision: 1
# Processed by: cddbd v1.5.1PL0 Copyright (c) Steve Scherf et al.
# Submitted via: CDex 1.51
#
DISCID=2a10c112
DTITLE=V 51 Jay Jay Johnson - Trombone Master
DYEAR=1991
DGENRE=Jazz
TTITLE0=Jay Bird (Fly Jay)
TTITLE1=Jay Jay (Jay, Jay Jay)
TTITLE2=I Mean You
TTITLE3=Quasimodo
TTITLE4=Crazeology
TTITLE5=Drifting On A Reed
TTITLE6=How Deep Is the Ocean
TTITLE7=Riffette
TTITLE8=Bone-Ology
TTITLE9=Yesterdays
TTITLE10=Indiana
TTITLE11=Capitolizing
TTITLE12=Audo-Bahn
TTITLE13=The Major
TTITLE14=Reflections
TTITLE15=NWPT
TTITLE16=Walkin'
TTITLE17=Buzzy
EXTD=YEAR: 1991
EXTT0=
EXTT1=
EXTT2=
EXTT3=
EXTT4=
EXTT5=
EXTT6=
EXTT7=
EXTT8=
EXTT9=
EXTT10=
EXTT11=
EXTT12=
EXTT13=
EXTT14=
EXTT15=
EXTT16=
EXTT17=
PLAYORDER=
